<?xml version="1.0" encoding="utf-8"?>
<!-- Generator: Adobe Illustrator 25.1.0, SVG Export Plug-In . SVG Version: 6.00 Build 0)  -->
<svg version="1.1" id="Layer_1" xmlns="http://www.w3.org/2000/svg" xmlns:xlink="http://www.w3.org/1999/xlink" x="0px" y="0px"
	 viewBox="0 0 1024 768" style="enable-background:new 0 0 1024 768;" xml:space="preserve">
<style type="text/css">
	.st0{fill:#FF9D0C;}
	.st1{fill:none;stroke:#FF9900;stroke-width:6;stroke-linecap:round;stroke-miterlimit:10;}
	.st2{fill:none;}
	.st3{fill:#FFFFFF;}
	.st4{font-family:'Roboto-Black';}
	.st5{font-size:48px;}
	.st6{letter-spacing:1;}
	.st7{fill:none;stroke:#FF9900;stroke-width:10;stroke-miterlimit:10;}
</style>
<path class="st0" d="M793,419c0,154.09-121.33,279-271,279S251,573.09,251,419c0-11.85,0.72-23.53,2.12-35h537.76
	C792.28,395.47,793,407.15,793,419z"/>
<polyline class="st0" points="734,393 668,289 668,393 658,393 658,220 584,220 584,393 575,393 575,184 467,184 467,393 458,393 
	458,220 383.94,220 383,393 374,393 374,289 308,393 "/>
<line class="st1" x1="308" y1="393" x2="252" y2="393"/>
<line class="st1" x1="374" y1="393" x2="383" y2="393"/>
<line class="st1" x1="458" y1="393" x2="467" y2="393"/>
<line class="st1" x1="575" y1="393" x2="584" y2="393"/>
<line class="st1" x1="658" y1="393" x2="668" y2="393"/>
<line class="st1" x1="735" y1="393" x2="790" y2="393"/>
<g>
	<rect x="263" y="426.87" class="st2" width="517" height="221.13"/>
	<text transform="matrix(1 0 0 1 394.7505 462.8691)"><tspan x="0" y="0" class="st3 st4 st5 st6">Mount Airy </tspan><tspan x="24.05" y="57.6" class="st3 st4 st5 st6">Chamber </tspan><tspan x="103.86" y="115.2" class="st3 st4 st5 st6">of </tspan><tspan x="3.44" y="172.8" class="st3 st4 st5 st6">Commerce</tspan></text>
</g>
<path class="st7" d="M792,427c0,149.67-121.33,271-271,271S250,576.67,250,427c0-11.51,0.72-22.86,2.12-34
	C268.84,259.38,382.84,156,521,156s252.16,103.38,268.88,237C791.28,404.14,792,415.49,792,427z"/>
</svg>
