<?xml version="1.0" encoding="utf-8"?>
<!-- Generator: Adobe Illustrator 25.1.0, SVG Export Plug-In . SVG Version: 6.00 Build 0)  -->
<svg version="1.1" id="Layer_1" xmlns="http://www.w3.org/2000/svg" xmlns:xlink="http://www.w3.org/1999/xlink" x="0px" y="0px"
	 viewBox="0 0 314 314" style="enable-background:new 0 0 314 314;" xml:space="preserve">
<style type="text/css">
	.st0{fill:#FFFFFF;}
	.st1{fill:#FFC500;}
	.st2{fill:#085FBA;}
</style>
<g>
	<path class="st0" d="M69,312c-36.94,0-67-30.06-67-67V69C2,32.06,32.06,2,69,2h176c36.94,0,67,30.06,67,67v176
		c0,36.94-30.06,67-67,67H69z"/>
	<path class="st1" d="M245,4c35.84,0,65,29.16,65,65v176c0,35.84-29.16,65-65,65H69c-35.84,0-65-29.16-65-65V69
		C4,33.16,33.16,4,69,4H245 M245,0H69C30.89,0,0,30.89,0,69v176c0,38.11,30.89,69,69,69h176c38.11,0,69-30.89,69-69V69
		C314,30.89,283.11,0,245,0L245,0z"/>
</g>
<g>
	<g>
		<path class="st2" d="M233,145v24H81v-24H233 M237,141H77v32h160V141L237,141z"/>
	</g>
</g>
<g>
	<g>
		<path class="st2" d="M233,210v24H81v-24H233 M237,206H77v32h160V206L237,206z"/>
	</g>
</g>
<g>
	<path class="st2" d="M233,80v24H81V80H233 M237,76H77v32h160V76L237,76z"/>
</g>
</svg>
