<svg id="Layer_1" data-name="Layer 1" xmlns="http://www.w3.org/2000/svg" viewBox="0 0 157 136"><defs><style>.cls-1{fill:#2b0851;}.cls-2{fill:#5f437d;}.cls-3{fill:#ffeddf;}.cls-4{fill:#6c9b83;}.cls-5,.cls-7{fill:#fff;}.cls-6{fill:#02542a;}.cls-7{stroke:#000;stroke-miterlimit:10;}</style></defs><polygon class="cls-1" points="57.06 106.77 66.96 96.67 60.54 90.13 72.41 78.01 64.39 69.82 87.3 46.46 99.3 58.7 87.42 70.82 95.45 79 85.82 88.83 92.24 95.38 69.23 118.84 59.3 120.64 49.98 122.34 57.06 106.77"/><path d="M162.29,88.17,173.6,99.7l-11.19,11.42-.69.7.69.7,7.34,7.48-8.95,9.13-.68.7.68.7,5.74,5.85-22.55,23-9.78,1.77-8.38,1.52,3-6.66,3.62-8,.09-.09,9.4-9.59.69-.7L142,137l-5.73-5.85,11.19-11.41.68-.7-.68-.7-7.34-7.49,22.2-22.65m0-1.43-23.6,24.08,8,8.19-11.87,12.11,6.42,6.55-9.4,9.59-.21.22,0,0L128,155.59,124.13,164l10.26-1.87,9.84-1.78.25,0,.1-.1,23.36-23.83-6.42-6.55,9.63-9.83-8-8.18L175,99.7l-12.71-13Z" transform="translate(-75 -41)"/><polygon class="cls-2" points="110.95 88.11 115.99 82.96 112.81 79.72 118.69 73.72 114.72 69.67 125.71 58.46 131.3 64.16 125.42 70.16 129.39 74.21 124.62 79.08 127.8 82.32 116.64 93.71 107.66 95.34 110.95 88.11"/><path d="M200.71,100.17l4.89,5-5.2,5.3-.68.7.68.7,3.29,3.35-4.08,4.17-.69.7.69.7,2.49,2.54-10.71,10.92-4.68.85-3.2.58,1.1-2.42,1.76-3.86,4.63-4.73.69-.7-.69-.7-2.49-2.54,5.2-5.3.68-.7-.68-.7-3.29-3.35,10.29-10.5m0-1.43L189,110.67l4,4-5.88,6,3.18,3.24-4.65,4.75-.11.11h0l-1.83,4L181.81,137l5.08-.92,4.87-.89.13,0,0,0,11.57-11.8-3.18-3.24,4.77-4.87-4-4,5.88-6-6.29-6.42Z" transform="translate(-75 -41)"/><polygon class="cls-2" points="32.95 90.11 37.99 84.96 34.81 81.72 40.69 75.72 36.72 71.67 47.71 60.46 53.3 66.16 47.42 72.16 51.39 76.21 46.62 81.08 49.8 84.32 38.64 95.71 29.66 97.34 32.95 90.11"/><path d="M122.71,102.17l4.89,5-5.2,5.3-.68.7.68.7,3.29,3.35-4.08,4.17-.69.7.69.7,2.49,2.54-10.71,10.92-4.68.85-3.2.58,1.1-2.42,1.76-3.86,4.63-4.73.69-.7-.69-.7-2.49-2.54,5.2-5.3.68-.7-.68-.7-3.29-3.35,10.29-10.5m0-1.43L111,112.67l4,4-5.88,6,3.18,3.24-4.65,4.75-.11.11h0l-1.83,4L103.81,139l5.08-.92,4.87-.89.13,0,0,0,11.57-11.8-3.18-3.24,4.77-4.87-4-4,5.88-6-6.29-6.42Z" transform="translate(-75 -41)"/><ellipse class="cls-3" cx="74" cy="114" rx="44.5" ry="21.5"/><path d="M149,134c11.87,0,23,2.25,31.38,6.34,8.14,4,12.62,9.19,12.62,14.66s-4.48,10.68-12.62,14.66C172,173.75,160.87,176,149,176s-23-2.25-31.38-6.34c-8.14-4-12.62-9.19-12.62-14.66s4.48-10.68,12.62-14.66C126,136.25,137.13,134,149,134m0-1c-24.85,0-45,9.85-45,22s20.15,22,45,22,45-9.85,45-22-20.15-22-45-22Z" transform="translate(-75 -41)"/><circle class="cls-4" cx="74" cy="114" r="20.5"/><path class="cls-4" d="M149,135a20,20,0,1,1-20,20,20,20,0,0,1,20-20m0-1a21,21,0,1,0,21,21,21,21,0,0,0-21-21Z" transform="translate(-75 -41)"/><path class="cls-5" d="M180.5,116.5c-20.86,0-39.45-3.85-47.35-9.82l-.29-.22-.3.21c-6.13,4.34-15.26,6.83-25.06,6.83-17.65,0-32-8.07-32-18,0-6.31,6-12.25,15.72-15.49l.37-.12,0-.39c0-.5-.06-1-.06-1.5,0-12.41,10.77-22.5,24-22.5a25,25,0,0,1,6.94,1l.35.1.21-.3a33,33,0,0,1,58.6,7.17l.25.71.56-.51A23.71,23.71,0,0,1,198.5,57.5c12.68,0,23,9.65,23,21.5v.23l.18.24A12.59,12.59,0,0,1,226.5,89a11.2,11.2,0,0,1-.89,4.34l-.17.4.38.22c3.72,2.19,5.68,4.62,5.68,7C231.5,109.55,208.62,116.5,180.5,116.5Z" transform="translate(-75 -41)"/><path d="M150.5,42a32.57,32.57,0,0,1,30.63,21.61l.5,1.42,1.12-1a23.18,23.18,0,0,1,15.75-6c12.41,0,22.5,9.42,22.5,21v.55l.35.3A12.09,12.09,0,0,1,226,89a10.72,10.72,0,0,1-.85,4.14l-.34.81.75.44C228,95.85,231,98.18,231,101c0,7.24-20.29,15-50.5,15-20.76,0-39.23-3.81-47.05-9.72l-.58-.44-.6.42c-6,4.28-15.07,6.74-24.77,6.74C90.13,113,76,105.15,76,95.5c0-6.09,5.89-11.84,15.38-15l.74-.25-.06-.78C92,79,92,78.49,92,78c0-12.13,10.54-22,23.5-22a24.39,24.39,0,0,1,6.8,1l.71.21.4-.62A32.46,32.46,0,0,1,150.5,42m0-1a33.44,33.44,0,0,0-27.92,15,25.39,25.39,0,0,0-7.08-1C102,55,91,65.3,91,78c0,.52,0,1,.06,1.54C81.45,82.75,75,88.7,75,95.5c0,10.22,14.55,18.5,32.5,18.5,10.25,0,19.39-2.7,25.35-6.92C140.56,112.9,159,117,180.5,117c28.44,0,51.5-7.16,51.5-16,0-2.7-2.14-5.24-5.93-7.47A11.65,11.65,0,0,0,227,89a13.06,13.06,0,0,0-5-9.91V79c0-12.15-10.52-22-23.5-22a24.26,24.26,0,0,0-16.43,6.27A33.52,33.52,0,0,0,150.5,41Z" transform="translate(-75 -41)"/><circle class="cls-6" cx="74" cy="114" r="15.5"/><path class="cls-6" d="M149,140a15,15,0,1,1-15,15,15,15,0,0,1,15-15m0-1a16,16,0,1,0,16,16,16,16,0,0,0-16-16Z" transform="translate(-75 -41)"/><circle cx="74" cy="114" r="6.5"/><path d="M149,149a6,6,0,1,1-6,6,6,6,0,0,1,6-6m0-1a7,7,0,1,0,7,7,7,7,0,0,0-7-7Z" transform="translate(-75 -41)"/><polygon class="cls-5" points="55.72 108.49 55.75 108.46 55.73 108.5 55.72 108.49"/><polygon points="55.75 108.46 55.72 108.49 55.73 108.5 55.75 108.46 55.75 108.46"/><line class="cls-7" x1="55.96" y1="108.01" x2="56.08" y2="108.13"/></svg>